<svg xmlns="http://www.w3.org/2000/svg" width="64" height="64" fill="none" viewBox="0 0 64 64"><path fill="url(#paint0_linear_37_255)" d="M56 32C56 45.2548 45.2548 56 32 56C18.7452 56 8 45.2548 8 32C8 18.7452 18.7452 8 32 8C45.2548 8 56 18.7452 56 32Z"/><path fill="url(#paint1_linear_37_255)" d="M52 32C52 43.0457 43.0457 52 32 52C20.9543 52 12 43.0457 12 32C12 20.9543 20.9543 12 32 12C43.0457 12 52 20.9543 52 32Z"/><path fill="url(#paint2_linear_37_255)" d="M23 29C21.3431 29 20 30.3431 20 32C20 33.6569 21.3431 35 23 35L41 35C42.6569 35 44 33.6569 44 32C44 30.3431 42.6569 29 41 29L23 29Z"/><path fill="url(#paint3_linear_37_255)" d="M29 23C29 21.3431 30.3431 20 32 20C33.6569 20 35 21.3431 35 23L35 41C35 42.6569 33.6569 44 32 44C30.3431 44 29 42.6569 29 41L29 23Z"/><defs><linearGradient id="paint0_linear_37_255" x1="32" x2="32" y1="8" y2="56" gradientUnits="userSpaceOnUse"><stop stop-opacity=".5"/><stop offset="1" stop-opacity="0"/></linearGradient><linearGradient id="paint1_linear_37_255" x1="32" x2="32" y1="12" y2="52" gradientUnits="userSpaceOnUse"><stop stop-opacity=".5"/><stop offset="1" stop-opacity="0"/></linearGradient><linearGradient id="paint2_linear_37_255" x1="30.588" x2="30.588" y1="29" y2="35" gradientUnits="userSpaceOnUse"><stop stop-opacity=".8"/><stop offset="1" stop-opacity="0"/></linearGradient><linearGradient id="paint3_linear_37_255" x1="31.647" x2="31.647" y1="20" y2="44" gradientUnits="userSpaceOnUse"><stop stop-opacity=".8"/><stop offset="1" stop-opacity="0"/></linearGradient></defs></svg>