<svg xmlns="http://www.w3.org/2000/svg" viewBox="0 0 64 64"><g fill="#222" data-name="Find"><path d="M40 55H24A15 15 0 0 1 9 40V24A15 15 0 0 1 24 9h16a15 15 0 0 1 15 15v16a15 15 0 0 1-15 15ZM24 11a13 13 0 0 0-13 13v16a13 13 0 0 0 13 13h16a13 13 0 0 0 13-13V24a13 13 0 0 0-13-13Z"/><path d="M30.72 41.28a10.57 10.57 0 1 1 10.56-10.56 10.58 10.58 0 0 1-10.56 10.56Zm0-19.13a8.57 8.57 0 1 0 8.56 8.57 8.57 8.57 0 0 0-8.56-8.57Z"/><path d="M42.85 43.85a1 1 0 0 1-.71-.29l-5.36-5.37a1 1 0 0 1 1.41-1.41l5.37 5.36a1 1 0 0 1 0 1.42 1 1 0 0 1-.71.29Z"/></g></svg>