<svg xmlns="http://www.w3.org/2000/svg" width="512" height="512" fill-rule="evenodd" clip-rule="evenodd" image-rendering="optimizeQuality" shape-rendering="geometricPrecision" text-rendering="geometricPrecision" viewBox="0 0 512000 512000"><path fill="#44577b" d="M154301 48416h203401c1740 0 3162 1422 3162 3162v48959c0 1740-1422 3162-3162 3162H154301c-1740 0-3162-1422-3162-3162V51578c0-1740 1422-3162 3162-3162z"/><path fill="#86776f" d="M103540 65068h304920c3484 0 6333 2849 6333 6333v408048c0 3484-2849 6333-6333 6333H103540c-3484 0-6333-2849-6333-6333V71401c0-3484 2849-6333 6333-6333z"/><path fill="#cdcdce" d="M111586 73949h288829c3300 0 5999 2699 5999 5999v386515c0 3300-2699 5999-5999 5999H111586c-3300 0-5999-2699-5999-5999V79948c0-3300 2699-5999 5999-5999z"/><path fill="#ebecec" d="M111586 65068h288829c3300 0 5999 2699 5999 5999v386515c0 3300-2699 5999-5999 5999H111586c-3300 0-5999-2699-5999-5999V71067c0-3300 2699-5999 5999-5999z"/><path fill="#56698f" d="M174746 48416h159290c1363 0 2476 1114 2476 2476v38342c0 1362-1113 2476-2476 2476H174746c-1362 0-2476-1114-2476-2476V50892c0-1362 1114-2476 2476-2476z"/><path fill="#6e86b4" d="M175521 26217h1c5495 0 9990 4495 9990 9990v57502c0 5495-4495 9990-9990 9990h-1c-5495 0-9990-4495-9990-9990V36207c0-5495 4495-9990 9990-9990zM336479 26217h1c5495 0 9990 4495 9990 9990v57502c0 5495-4495 9990-9990 9990h-1c-5495 0-9990-4495-9990-9990V36207c0-5495 4495-9990 9990-9990z"/><path fill="#dbd2be" d="M138195 157621h236443v4441H138195v-4441zm0 260865h236443v4441H138195v-4441zm0-52173h236443v4441H138195v-4441zm0-52173h236443v4441H138195v-4441zm0-52173h236443v4441H138195v-4441zm0-52173h236443v4441H138195v-4441z"/></svg>