<svg xmlns="http://www.w3.org/2000/svg" viewBox="0 0 150 150"><path fill="#d5d6db" d="M29.4 109.84v-1.2c0-3.2 2.6-5.8 5.8-5.8h1.02v-9.03H35.2c-3.2 0-5.8-2.6-5.8-5.8v-1.2c0-3.2 2.6-5.8 5.8-5.8h1.02v-9.03H35.2c-3.2 0-5.8-2.6-5.8-5.79v-1.21c0-3.19 2.6-5.79 5.8-5.79h1.02v-9.03H35.2c-3.2 0-5.8-2.6-5.8-5.8v-1.2c0-3.2 2.6-5.8 5.8-5.8h1.02V28.5c0-3.31 2.69-6 6-6h65.34c3.3 0 6 2.69 6 6v4.59h10.04v20.16h-2.24V65.4h-3.48v12.15h-4.32v46.95c0 3.31-2.7 6-6 6H42.22c-3.31 0-6-2.69-6-6v-8.86H35.2c-3.2 0-5.8-2.6-5.8-5.8z"/><path fill="#fff" d="M26.4 106.84v-1.2c0-3.2 2.6-5.8 5.8-5.8h1.02v-9.03H32.2c-3.2 0-5.8-2.6-5.8-5.8v-1.2c0-3.2 2.6-5.8 5.8-5.8h1.02v-9.03H32.2c-3.2 0-5.8-2.6-5.8-5.79v-1.21c0-3.19 2.6-5.79 5.8-5.79h1.02v-9.03H32.2c-3.2 0-5.8-2.6-5.8-5.8v-1.2c0-3.2 2.6-5.8 5.8-5.8h1.02V25.5c0-3.31 2.69-6 6-6h65.34c3.3 0 6 2.69 6 6v4.59h10.04v20.16h-2.24V62.4h-3.48v12.15h-4.32v46.95c0 3.31-2.7 6-6 6H39.22c-3.31 0-6-2.69-6-6v-8.86H32.2c-3.2 0-5.8-2.6-5.8-5.8z"/><path fill="#64798a" d="M104.556 123.498H39.223a2 2 0 0 1-2-2v-96a2 2 0 0 1 2-2h65.333a2 2 0 0 1 2 2v96a2 2 0 0 1-2 2z"/><circle cx="46.098" cy="40.758" r="5.333" fill="#d5d6db"/><circle cx="46.098" cy="40.758" r="4.098" fill="#3a556a"/><circle cx="46.098" cy="62.585" r="5.333" fill="#d5d6db"/><circle cx="46.098" cy="62.585" r="4.098" fill="#3a556a"/><circle cx="46.098" cy="84.412" r="5.333" fill="#d5d6db"/><circle cx="46.098" cy="84.412" r="4.098" fill="#3a556a"/><circle cx="46.098" cy="106.239" r="5.333" fill="#d5d6db"/><circle cx="46.098" cy="106.239" r="4.098" fill="#3a556a"/><path fill="#27a2db" d="M45.021 43.158h-12.82a1.8 1.8 0 0 1-1.8-1.8v-1.2a1.8 1.8 0 0 1 1.8-1.8h12.82a1.8 1.8 0 0 1 1.8 1.8v1.2a1.8 1.8 0 0 1-1.8 1.8zM45.021 64.985h-12.82a1.8 1.8 0 0 1-1.8-1.8v-1.2a1.8 1.8 0 0 1 1.8-1.8h12.82a1.8 1.8 0 0 1 1.8 1.8v1.2a1.8 1.8 0 0 1-1.8 1.8zM45.021 86.811h-12.82a1.8 1.8 0 0 1-1.8-1.8v-1.199a1.8 1.8 0 0 1 1.8-1.8h12.82a1.8 1.8 0 0 1 1.8 1.8v1.2a1.8 1.8 0 0 1-1.8 1.8zM45.021 108.638h-12.82a1.8 1.8 0 0 1-1.8-1.8v-1.2a1.8 1.8 0 0 1 1.8-1.799h12.82a1.8 1.8 0 0 1 1.8 1.8v1.2a1.8 1.8 0 0 1-1.8 1.8z"/><path fill="#e56353" d="M106.556 34.091h10.043v12.154h-10.043z"/><path fill="#27a2db" d="M106.556 46.245h7.803V58.4h-7.803z"/><path fill="#44c4a1" d="M106.556 58.4h4.328v12.153h-4.328z"/><path fill="#e1e6e9" d="M59.406 35.425h39.176v21.114H59.406z"/><path fill="#64798a" d="M65.66 44.982h26.667v2H65.661zM72.327 39.65h13.334v2H72.327zM72.327 50.316h13.334v2H72.327z"/><path fill="#64798a" d="M104.556 123.498H39.223a2 2 0 0 1-2-2v-96a2 2 0 0 1 2-2h65.333a2 2 0 0 1 2 2v96a2 2 0 0 1-2 2z"/><circle cx="46.098" cy="40.758" r="5.333" fill="#d5d6db"/><circle cx="46.098" cy="40.758" r="4.098" fill="#3a556a"/><circle cx="46.098" cy="62.585" r="5.333" fill="#d5d6db"/><circle cx="46.098" cy="62.585" r="4.098" fill="#3a556a"/><circle cx="46.098" cy="84.412" r="5.333" fill="#d5d6db"/><circle cx="46.098" cy="84.412" r="4.098" fill="#3a556a"/><circle cx="46.098" cy="106.239" r="5.333" fill="#d5d6db"/><circle cx="46.098" cy="106.239" r="4.098" fill="#3a556a"/><path fill="#27a2db" d="M45.021 43.158h-12.82a1.8 1.8 0 0 1-1.8-1.8v-1.2a1.8 1.8 0 0 1 1.8-1.8h12.82a1.8 1.8 0 0 1 1.8 1.8v1.2a1.8 1.8 0 0 1-1.8 1.8zM45.021 64.985h-12.82a1.8 1.8 0 0 1-1.8-1.8v-1.2a1.8 1.8 0 0 1 1.8-1.8h12.82a1.8 1.8 0 0 1 1.8 1.8v1.2a1.8 1.8 0 0 1-1.8 1.8zM45.021 86.811h-12.82a1.8 1.8 0 0 1-1.8-1.8v-1.199a1.8 1.8 0 0 1 1.8-1.8h12.82a1.8 1.8 0 0 1 1.8 1.8v1.2a1.8 1.8 0 0 1-1.8 1.8zM45.021 108.638h-12.82a1.8 1.8 0 0 1-1.8-1.8v-1.2a1.8 1.8 0 0 1 1.8-1.799h12.82a1.8 1.8 0 0 1 1.8 1.8v1.2a1.8 1.8 0 0 1-1.8 1.8z"/><path fill="#e56353" d="M106.556 34.091h10.043v12.154h-10.043z"/><path fill="#27a2db" d="M106.556 46.245h7.803V58.4h-7.803z"/><path fill="#44c4a1" d="M106.556 58.4h4.328v12.153h-4.328z"/><path fill="#e1e6e9" d="M59.406 35.425h39.176v21.114H59.406z"/><path fill="#64798a" d="M65.66 44.982h26.667v2H65.661zM72.327 39.65h13.334v2H72.327zM72.327 50.316h13.334v2H72.327z"/></svg>