<svg xmlns="http://www.w3.org/2000/svg" viewBox="0 0 36 36"><path fill="#DEE4E9" d="M28.6 3.5v12.2c0 .8-.7 1.5-1.5 1.5H8.9c-.8 0-1.5-.7-1.5-1.5V3.5C7.4 2.7 8 2 8.9 2h18.2c.9 0 1.5.7 1.5 1.5zM28.6 20.2v12.2c0 .8-.7 1.5-1.5 1.5H8.9c-.8 0-1.5-.7-1.5-1.5V20.2c0-.9.7-1.5 1.5-1.5h18.2c.9 0 1.5.7 1.5 1.5z"/><path fill="#3E4347" d="M12.7 20.8c0 .6-.5 1.1-1.1 1.1-.6 0-1.1-.5-1.1-1.1 0-.6.5-1.1 1.1-1.1.6 0 1.1.5 1.1 1.1zM10.4 15.2c0-.6.5-1.1 1.1-1.1.6 0 1.1.5 1.1 1.1 0 .6-.5 1.1-1.1 1.1-.6 0-1.1-.5-1.1-1.1z"/><path fill="#A5856D" d="M11.6 21.3c-.3 0-.5-.2-.5-.5v-5.6c0-.3.2-.5.5-.5s.5.2.5.5v5.6c0 .3-.3.5-.5.5z"/><path fill="#3E4347" d="M17 20.8c0 .6-.5 1.1-1.1 1.1-.6 0-1.1-.5-1.1-1.1 0-.6.5-1.1 1.1-1.1.6 0 1.1.5 1.1 1.1zM14.7 15.2c0-.6.5-1.1 1.1-1.1.6 0 1.1.5 1.1 1.1 0 .6-.5 1.1-1.1 1.1-.6 0-1.1-.5-1.1-1.1z"/><path fill="#A5856D" d="M15.9 21.3c-.3 0-.5-.2-.5-.5v-5.6c0-.3.2-.5.5-.5s.5.2.5.5v5.6c0 .3-.3.5-.5.5z"/><path fill="#3E4347" d="M21.3 20.8c0 .6-.5 1.1-1.1 1.1-.6 0-1.1-.5-1.1-1.1 0-.6.5-1.1 1.1-1.1.6 0 1.1.5 1.1 1.1zM19 15.2c0-.6.5-1.1 1.1-1.1.6 0 1.1.5 1.1 1.1 0 .6-.5 1.1-1.1 1.1-.6 0-1.1-.5-1.1-1.1z"/><path fill="#A5856D" d="M20.1 21.3c-.3 0-.5-.2-.5-.5v-5.6c0-.3.2-.5.5-.5s.5.2.5.5v5.6c.1.3-.2.5-.5.5z"/><path fill="#3E4347" d="M25.6 20.8c0 .6-.5 1.1-1.1 1.1-.6 0-1.1-.5-1.1-1.1 0-.6.5-1.1 1.1-1.1.6 0 1.1.5 1.1 1.1zM23.3 15.2c0-.6.5-1.1 1.1-1.1.6 0 1.1.5 1.1 1.1 0 .6-.5 1.1-1.1 1.1-.6 0-1.1-.5-1.1-1.1z"/><path fill="#A5856D" d="M24.4 21.3c-.3 0-.5-.2-.5-.5v-5.6c0-.3.2-.5.5-.5s.5.2.5.5v5.6c.1.3-.2.5-.5.5z"/><path fill="#65B1EF" d="M14.6 4.4v4.5c0 .2-.2.4-.4.4H9.8c-.2 0-.4-.2-.4-.4V4.4c0-.2.1-.4.4-.4h4.4c.2 0 .4.2.4.4z"/><path fill="#BBC7D1" d="M9.4 11.8c0 .4.3.8.8.8h15.7c.4 0 .8-.3.8-.8 0-.4-.3-.8-.8-.8H10.1c-.4 0-.7.4-.7.8zM16 7.8c0 .4.3.8.8.8h9.1c.4 0 .8-.3.8-.8 0-.4-.3-.8-.8-.8h-9.1c-.5 0-.8.3-.8.8zM9.4 24.5c0 .4.3.8.8.8h15.7c.4 0 .8-.3.8-.8 0-.4-.3-.8-.8-.8H10.1c-.4.1-.7.4-.7.8zM9.4 27.9c0 .4.3.8.8.8h15.7c.4 0 .8-.3.8-.8 0-.4-.3-.8-.8-.8H10.1c-.4 0-.7.4-.7.8zM9.4 31.2c0 .4.3.8.8.8h15.7c.4 0 .8-.3.8-.8 0-.4-.3-.8-.8-.8H10.1c-.4 0-.7.4-.7.8z"/></svg>